# xmcd
#
# Track frame offsets:
#	150
#	18354
#	47435
#	60535
#	76965
#
# Disc length: 1209 seconds
#
# Revision: 1
# Processed by: cddbd v1.5.1PL0 Copyright (c) Steve Scherf et al.
# Submitted via: audiograbber 1.82.02
#
DISCID=2f04b705
DTITLE=Slick Ballinger - Mississippi Soul
DYEAR=2005
DGENRE=Blues
TTITLE0=Mississippi Soul
TTITLE1=Moon Shining on My Back
TTITLE2=Keep On Struggling
TTITLE3=Needed Time
TTITLE4=Let's Get Down
EXTD=Daniel "Slick" Ballinger, Oh Boy Recording Artist, presents\nMississippi S
EXTD=oul EP, All Songs written by Daniel "Slick" Ballinger and published by Sli
EXTD=ck's Blues(BMI), except "Needed Time" written by Sam "Lightnin" Hopkins an
EXTD=d Jules Taub, published by Careers-BMG Music Publishing, Inc. (BMI).\nProd
EXTD=uced by: Colin Linden\nDrums: Kinney Kimbrough\nHarmonica: Bilnd Mississip
EXTD=pi Morris\nGuitar and Vocals: Slick Ballinger\n\nslickballinger.com\nohboy.c
EXTD=om
EXTT0=
EXTT1=
EXTT2=
EXTT3=
EXTT4=
PLAYORDER=
